solid OpenSCAD_Model
  facet normal -1 0 0
    outer loop
      vertex -13.15 10.9 0
      vertex -13.15 8.9 1
      vertex -13.15 10.9 1
    endloop
  endfacet
  facet normal -1 0 0
    outer loop
      vertex -13.15 8.9 1
      vertex -13.15 -8.9 1
      vertex -13.15 8.9 6.75
    endloop
  endfacet
  facet normal -1 0 0
    outer loop
      vertex -13.15 10.9 0
      vertex -13.15 -8.9 1
      vertex -13.15 8.9 1
    endloop
  endfacet
  facet normal -1 0 0
    outer loop
      vertex -13.15 -10.9 0
      vertex -13.15 -8.9 1
      vertex -13.15 10.9 0
    endloop
  endfacet
  facet normal -1 -0 0
    outer loop
      vertex -13.15 -8.9 1
      vertex -13.15 -10.9 0
      vertex -13.15 -10.9 1
    endloop
  endfacet
  facet normal -1 -0 0
    outer loop
      vertex -13.15 8.9 6.75
      vertex -13.15 -8.9 1
      vertex -13.15 -8.9 6.75
    endloop
  endfacet
  facet normal 0 0 1
    outer loop
      vertex 13.15 8.9 6.75
      vertex 10.5 8.3 6.75
      vertex 13.15 -8.9 6.75
    endloop
  endfacet
  facet normal 0 0 1
    outer loop
      vertex 13.15 8.9 6.75
      vertex -10.5 8.3 6.75
      vertex 10.5 8.3 6.75
    endloop
  endfacet
  facet normal 0 0 1
    outer loop
      vertex -10.5 8.3 6.75
      vertex -13.15 8.9 6.75
      vertex -10.5 -8.3 6.75
    endloop
  endfacet
  facet normal -0 0 1
    outer loop
      vertex -13.15 8.9 6.75
      vertex -10.5 8.3 6.75
      vertex 13.15 8.9 6.75
    endloop
  endfacet
  facet normal -0 0 1
    outer loop
      vertex 10.5 -8.3 6.75
      vertex 13.15 -8.9 6.75
      vertex 10.5 8.3 6.75
    endloop
  endfacet
  facet normal -0 0 1
    outer loop
      vertex -10.5 -8.3 6.75
      vertex 13.15 -8.9 6.75
      vertex 10.5 -8.3 6.75
    endloop
  endfacet
  facet normal 0 0 1
    outer loop
      vertex -10.5 -8.3 6.75
      vertex -13.15 -8.9 6.75
      vertex 13.15 -8.9 6.75
    endloop
  endfacet
  facet normal 0 0 1
    outer loop
      vertex -13.15 -8.9 6.75
      vertex -10.5 -8.3 6.75
      vertex -13.15 8.9 6.75
    endloop
  endfacet
  facet normal 1 0 0
    outer loop
      vertex 13.15 8.9 6.75
      vertex 13.15 -8.9 6.75
      vertex 13.15 8.9 1
    endloop
  endfacet
  facet normal 1 -0 0
    outer loop
      vertex 13.15 8.9 1
      vertex 13.15 10.9 0
      vertex 13.15 10.9 1
    endloop
  endfacet
  facet normal 1 0 0
    outer loop
      vertex 13.15 -8.9 1
      vertex 13.15 8.9 1
      vertex 13.15 -8.9 6.75
    endloop
  endfacet
  facet normal 1 0 0
    outer loop
      vertex 13.15 8.9 1
      vertex 13.15 -8.9 1
      vertex 13.15 10.9 0
    endloop
  endfacet
  facet normal 1 0 0
    outer loop
      vertex 13.15 -10.9 0
      vertex 13.15 -8.9 1
      vertex 13.15 -10.9 1
    endloop
  endfacet
  facet normal 1 0 0
    outer loop
      vertex 13.15 -8.9 1
      vertex 13.15 -10.9 0
      vertex 13.15 10.9 0
    endloop
  endfacet
  facet normal 0 0 -1
    outer loop
      vertex 13.15 -10.9 0
      vertex 10.5 -8.3 0
      vertex 13.15 10.9 0
    endloop
  endfacet
  facet normal 0 0 -1
    outer loop
      vertex 13.15 -10.9 0
      vertex -10.5 -8.3 0
      vertex 10.5 -8.3 0
    endloop
  endfacet
  facet normal -0 0 -1
    outer loop
      vertex -10.5 -8.3 0
      vertex -13.15 -10.9 0
      vertex -10.5 8.3 0
    endloop
  endfacet
  facet normal 0 0 -1
    outer loop
      vertex -13.15 -10.9 0
      vertex -10.5 -8.3 0
      vertex 13.15 -10.9 0
    endloop
  endfacet
  facet normal 0 0 -1
    outer loop
      vertex 10.5 8.3 0
      vertex 13.15 10.9 0
      vertex 10.5 -8.3 0
    endloop
  endfacet
  facet normal 0 0 -1
    outer loop
      vertex -10.5 8.3 0
      vertex 13.15 10.9 0
      vertex 10.5 8.3 0
    endloop
  endfacet
  facet normal 0 0 -1
    outer loop
      vertex -10.5 8.3 0
      vertex -13.15 10.9 0
      vertex 13.15 10.9 0
    endloop
  endfacet
  facet normal 0 0 -1
    outer loop
      vertex -13.15 10.9 0
      vertex -10.5 8.3 0
      vertex -13.15 -10.9 0
    endloop
  endfacet
  facet normal 0 -1 0
    outer loop
      vertex -13.15 -8.9 1
      vertex 13.15 -8.9 6.75
      vertex -13.15 -8.9 6.75
    endloop
  endfacet
  facet normal 0 -1 -0
    outer loop
      vertex 13.15 -8.9 6.75
      vertex -13.15 -8.9 1
      vertex 13.15 -8.9 1
    endloop
  endfacet
  facet normal 0 1 -0
    outer loop
      vertex 13.15 8.9 1
      vertex -13.15 8.9 6.75
      vertex 13.15 8.9 6.75
    endloop
  endfacet
  facet normal 0 1 0
    outer loop
      vertex -13.15 8.9 6.75
      vertex 13.15 8.9 1
      vertex -13.15 8.9 1
    endloop
  endfacet
  facet normal -0 0 1
    outer loop
      vertex -13.15 -8.9 1
      vertex 13.15 -10.9 1
      vertex 13.15 -8.9 1
    endloop
  endfacet
  facet normal 0 0 1
    outer loop
      vertex 13.15 -10.9 1
      vertex -13.15 -8.9 1
      vertex -13.15 -10.9 1
    endloop
  endfacet
  facet normal -0 0 1
    outer loop
      vertex -13.15 10.9 1
      vertex 13.15 8.9 1
      vertex 13.15 10.9 1
    endloop
  endfacet
  facet normal 0 0 1
    outer loop
      vertex 13.15 8.9 1
      vertex -13.15 10.9 1
      vertex -13.15 8.9 1
    endloop
  endfacet
  facet normal 0 -1 0
    outer loop
      vertex -13.15 -10.9 0
      vertex 13.15 -10.9 1
      vertex -13.15 -10.9 1
    endloop
  endfacet
  facet normal 0 -1 -0
    outer loop
      vertex 13.15 -10.9 1
      vertex -13.15 -10.9 0
      vertex 13.15 -10.9 0
    endloop
  endfacet
  facet normal 0 1 -0
    outer loop
      vertex 13.15 10.9 0
      vertex -13.15 10.9 1
      vertex 13.15 10.9 1
    endloop
  endfacet
  facet normal 0 1 0
    outer loop
      vertex -13.15 10.9 1
      vertex 13.15 10.9 0
      vertex -13.15 10.9 0
    endloop
  endfacet
  facet normal 1 -0 0
    outer loop
      vertex -10.5 -8.3 6.75
      vertex -10.5 8.3 0
      vertex -10.5 8.3 6.75
    endloop
  endfacet
  facet normal 1 0 0
    outer loop
      vertex -10.5 8.3 0
      vertex -10.5 -8.3 6.75
      vertex -10.5 -8.3 0
    endloop
  endfacet
  facet normal -1 0 0
    outer loop
      vertex 10.5 -8.3 0
      vertex 10.5 8.3 6.75
      vertex 10.5 8.3 0
    endloop
  endfacet
  facet normal -1 -0 0
    outer loop
      vertex 10.5 8.3 6.75
      vertex 10.5 -8.3 0
      vertex 10.5 -8.3 6.75
    endloop
  endfacet
  facet normal 0 -1 0
    outer loop
      vertex -10.5 8.3 0
      vertex 10.5 8.3 6.75
      vertex -10.5 8.3 6.75
    endloop
  endfacet
  facet normal 0 -1 -0
    outer loop
      vertex 10.5 8.3 6.75
      vertex -10.5 8.3 0
      vertex 10.5 8.3 0
    endloop
  endfacet
  facet normal 0 1 -0
    outer loop
      vertex 10.5 -8.3 0
      vertex -10.5 -8.3 6.75
      vertex 10.5 -8.3 6.75
    endloop
  endfacet
  facet normal 0 1 0
    outer loop
      vertex -10.5 -8.3 6.75
      vertex 10.5 -8.3 0
      vertex -10.5 -8.3 0
    endloop
  endfacet
endsolid OpenSCAD_Model
